<?xml version="1.0" encoding="UTF-8" standalone="no"?>
<!-- Created with Inkscape (http://www.inkscape.org/) -->

<svg
   xmlns:dc="http://purl.org/dc/elements/1.1/"
   xmlns:cc="http://creativecommons.org/ns#"
   xmlns:rdf="http://www.w3.org/1999/02/22-rdf-syntax-ns#"
   xmlns:svg="http://www.w3.org/2000/svg"
   xmlns="http://www.w3.org/2000/svg"
   xmlns:sodipodi="http://sodipodi.sourceforge.net/DTD/sodipodi-0.dtd"
   xmlns:inkscape="http://www.inkscape.org/namespaces/inkscape"
   width="592.75171"
   height="218.71997"
   id="svg2"
   version="1.1"
   inkscape:version="0.47 r22583"
   sodipodi:docname="mlayout.svg">
  <defs
     id="defs4">
    <marker
       inkscape:stockid="Arrow2Mend"
       orient="auto"
       refY="0"
       refX="0"
       id="Arrow2Mend"
       style="overflow:visible">
      <path
         id="path3634"
         style="font-size:12px;fill-rule:evenodd;stroke-width:0.625;stroke-linejoin:round"
         d="M 8.7185878,4.0337352 -2.2072895,0.01601326 8.7185884,-4.0017078 c -1.7454984,2.3720609 -1.7354408,5.6174519 -6e-7,8.035443 z"
         transform="scale(-0.6,-0.6)" />
    </marker>
    <marker
       inkscape:stockid="Arrow1Mend"
       orient="auto"
       refY="0"
       refX="0"
       id="Arrow1Mend"
       style="overflow:visible">
      <path
         id="path3616"
         d="M 0,0 5,-5 -12.5,0 5,5 0,0 z"
         style="fill-rule:evenodd;stroke:#000000;stroke-width:1pt;marker-start:none"
         transform="matrix(-0.4,0,0,-0.4,-4,0)" />
    </marker>
    <inkscape:perspective
       sodipodi:type="inkscape:persp3d"
       inkscape:vp_x="0 : 526.18109 : 1"
       inkscape:vp_y="0 : 1000 : 0"
       inkscape:vp_z="744.09448 : 526.18109 : 1"
       inkscape:persp3d-origin="372.04724 : 350.78739 : 1"
       id="perspective10" />
    <inkscape:perspective
       id="perspective5046"
       inkscape:persp3d-origin="0.5 : 0.33333333 : 1"
       inkscape:vp_z="1 : 0.5 : 1"
       inkscape:vp_y="0 : 1000 : 0"
       inkscape:vp_x="0 : 0.5 : 1"
       sodipodi:type="inkscape:persp3d" />
  </defs>
  <sodipodi:namedview
     id="base"
     pagecolor="#ffffff"
     bordercolor="#666666"
     borderopacity="1.0"
     inkscape:pageopacity="0.0"
     inkscape:pageshadow="2"
     inkscape:zoom="0.98994949"
     inkscape:cx="91.224467"
     inkscape:cy="40.319746"
     inkscape:document-units="px"
     inkscape:current-layer="layer1"
     showgrid="false"
     inkscape:window-width="1589"
     inkscape:window-height="1079"
     inkscape:window-x="0"
     inkscape:window-y="25"
     inkscape:window-maximized="0" />
  <metadata
     id="metadata7">
    <rdf:RDF>
      <cc:Work
         rdf:about="">
        <dc:format>image/svg+xml</dc:format>
        <dc:type
           rdf:resource="http://purl.org/dc/dcmitype/StillImage" />
        <dc:title></dc:title>
      </cc:Work>
    </rdf:RDF>
  </metadata>
  <g
     inkscape:label="Layer 1"
     inkscape:groupmode="layer"
     id="layer1"
     transform="translate(50.809967,-128.28741)">
    <rect
       style="fill:none;stroke:#000000;stroke-width:0.99999988;stroke-opacity:1"
       id="rect2818"
       width="402.474"
       height="55.313286"
       x="136.19728"
       y="176.38661" />
    <rect
       y="173.52946"
       x="133.34013"
       height="124.27339"
       width="408.10162"
       id="rect3592"
       style="fill:none;stroke:#000000;stroke-width:1;stroke-opacity:1" />
    <text
       xml:space="preserve"
       style="font-size:20px;font-style:normal;font-variant:normal;font-weight:normal;font-stretch:normal;fill:#000000;fill-opacity:1;stroke:none;font-family:Times New Roman;-inkscape-font-specification:'Times New Roman,'"
       x="201.02036"
       y="142.17413"
       id="text3594"><tspan
         sodipodi:role="line"
         id="tspan3596"
         x="201.02036"
         y="142.17413"
         style="font-style:italic;-inkscape-font-specification:Andale Mono Italic">GtExample</tspan></text>
    <text
       id="text3598"
       y="342.73004"
       x="188.89853"
       style="font-size:20px;font-style:normal;font-variant:normal;font-weight:normal;font-stretch:normal;fill:#000000;fill-opacity:1;stroke:none;font-family:Times New Roman;-inkscape-font-specification:'Times New Roman,'"
       xml:space="preserve"><tspan
         y="342.73004"
         x="188.89853"
         id="tspan3600"
         sodipodi:role="line">GtExampleA</tspan></text>
    <path
       style="fill:none;stroke:#000000;stroke-width:1px;stroke-linecap:butt;stroke-linejoin:miter;stroke-opacity:1;marker-end:url(#Arrow2Mend)"
       d="m 238.396,328.58789 0,-28.28428"
       id="path3602" />
    <path
       id="path4240"
       d="m 238.37678,147.47924 0,28.28428"
       style="fill:none;stroke:#000000;stroke-width:1px;stroke-linecap:butt;stroke-linejoin:miter;stroke-opacity:1;marker-end:url(#Arrow2Mend)" />
    <g
       id="g4250"
       transform="translate(-27.252289,0)">
      <text
         id="text4242"
         y="211.91527"
         x="279.28192"
         style="font-size:20px;font-style:normal;font-variant:normal;font-weight:normal;font-stretch:normal;fill:#000000;fill-opacity:1;stroke:none;font-family:Times New Roman;-inkscape-font-specification:'Times New Roman,'"
         xml:space="preserve"><tspan
           y="211.91527"
           x="279.28192"
           id="tspan4244"
           sodipodi:role="line">&lt;interface members&gt;</tspan></text>
      <text
         xml:space="preserve"
         style="font-size:20px;font-style:normal;font-variant:normal;font-weight:normal;font-stretch:normal;fill:#000000;fill-opacity:1;stroke:none;font-family:Times New Roman;-inkscape-font-specification:'Times New Roman,'"
         x="251.528"
         y="273.91528"
         id="text4246"><tspan
           sodipodi:role="line"
           id="tspan4248"
           x="251.528"
           y="273.91528">&lt;implementation members&gt;</tspan></text>
    </g>
    <path
       style="fill:none;stroke:#000000;stroke-width:1px;stroke-linecap:butt;stroke-linejoin:miter;stroke-opacity:1"
       d="m 66.670067,159.38732 14.142137,14.14214 44.446716,0"
       id="path4258"
       sodipodi:nodetypes="ccc" />
    <path
       id="path4260"
       d="m 80.812203,231.6999 44.446717,0"
       style="fill:none;stroke:#000000;stroke-width:1px;stroke-linecap:butt;stroke-linejoin:miter;stroke-opacity:1" />
    <text
       xml:space="preserve"
       style="font-size:14px;font-style:normal;font-variant:normal;font-weight:normal;font-stretch:normal;fill:#000000;fill-opacity:1;stroke:none;font-family:Courier New;-inkscape-font-specification:Courier New"
       x="31.314722"
       y="158.37718"
       id="text4304"><tspan
         sodipodi:role="line"
         id="tspan4306"
         x="31.314722"
         y="158.37718">e/ea</tspan></text>
    <path
       style="font-style:normal;font-variant:normal;font-weight:normal;font-stretch:normal;letter-spacing:normal;word-spacing:normal;text-anchor:start;fill:#000000;fill-opacity:1;fill-rule:evenodd;stroke:#000000;stroke-width:0;stroke-linecap:butt;stroke-linejoin:miter;stroke-miterlimit:4;stroke-opacity:1;stroke-dasharray:none;stroke-dashoffset:0;font-family:Times New Roman;-inkscape-font-specification:'Times New Roman,'"
       id="path5401"
       d="m 75.486556,180.10541 0.01822,0 0.01519,0 0.01516,0 0.01519,0 0.01212,0 0.01516,0 0.01517,0 0.01212,0 0.01212,0 0.01519,0 0.01212,0 0.01212,0 0.02123,0 0.02126,-0.002 0.02123,0 0.01822,-0.002 0.0182,0 0.01822,-0.002 0.01517,-0.002 0.01212,-0.002 0.01519,-0.004 0.01212,-0.002 0.01212,-0.004 0.0091,-0.004 0.0091,-0.004 0.0091,-0.006 0.0061,-0.004 0.0061,-0.006 0.0061,-0.009 0.0061,-0.006 0.0031,-0.009 0.0061,-0.009 0.0031,-0.01 0,-0.009 0.0031,-0.0125 0,-0.01 0.0031,-0.0125 0,-0.0146 c 0.01519,-0.62993 0.136585,-1.65486 0.801302,-2.58835 0.816469,-1.11849 1.769524,-1.54262 2.358352,-1.8004 0.07589,-0.0312 0.07589,-0.0936 0.07589,-0.2287 0,-0.23701 -0.01517,-0.24948 -0.394586,-0.24948 l -0.239785,0 c -3.70599,1.40956 -4.416224,3.74013 -4.416224,4.79626 0,0.2162 0.01516,0.2162 0.421884,0.2162 l 0.968233,0 z" />
    <path
       style="font-style:normal;font-variant:normal;font-weight:normal;font-stretch:normal;letter-spacing:normal;word-spacing:normal;text-anchor:start;fill:#000000;fill-opacity:1;fill-rule:evenodd;stroke:#000000;stroke-width:0;stroke-linecap:butt;stroke-linejoin:miter;stroke-miterlimit:4;stroke-opacity:1;stroke-dasharray:none;stroke-dashoffset:0;font-family:Times New Roman;-inkscape-font-specification:'Times New Roman,'"
       id="path5403"
       d="m 71.495253,202.46284 0.33995,-0.13515 0.321733,-0.13928 0.303515,-0.14346 0.288349,-0.14968 0.273168,-0.15177 0.257988,-0.15592 0.242823,-0.15801 0.224604,-0.16216 0.215495,-0.16217 0.197293,-0.16631 0.188184,-0.16631 0.173004,-0.16633 0.160874,-0.1684 0.148728,-0.16839 0.136585,-0.16841 0.12444,-0.16839 0.115329,-0.16632 0.103201,-0.16426 0.0941,-0.16214 0.08498,-0.16216 0.07589,-0.15802 0.06677,-0.15593 0.05768,-0.15176 0.05159,-0.14761 0.04249,-0.14344 0.03642,-0.13929 0.03035,-0.13306 0.02126,-0.12892 0.01822,-0.12266 0.01212,-0.11638 0.0061,-0.11014 0.0031,-0.10182 c 0,-0.21829 -0.01517,-0.21829 -0.424934,-0.21829 l -0.968233,0 c -0.346008,0 -0.421884,0 -0.421884,0.14554 -0.01517,0.632 -0.136583,1.65696 -0.801301,2.58835 -0.816471,1.11851 -1.769524,1.54262 -2.358367,1.80249 -0.07587,0.0312 -0.07587,0.0935 -0.07587,0.22662 0,0.23909 0.01517,0.24948 0.394574,0.24948 l 0.239784,0 z" />
    <path
       style="font-style:normal;font-variant:normal;font-weight:normal;font-stretch:normal;letter-spacing:normal;word-spacing:normal;text-anchor:start;fill:#000000;fill-opacity:1;fill-rule:evenodd;stroke:#000000;stroke-width:0;stroke-linecap:butt;stroke-linejoin:miter;stroke-miterlimit:4;stroke-opacity:1;stroke-dasharray:none;stroke-dashoffset:0;font-family:Times New Roman;-inkscape-font-specification:'Times New Roman,'"
       id="path5405"
       d="m 75.486556,206.8911 0.01822,0 0.01822,0 0.0182,0 0.01822,0 0.01516,0 0.01822,0 0.01519,0 0.01516,0 0.01517,0 0.01212,0 0.01516,0 0.01212,0 0.01212,0 0.01211,-0.002 0.01212,0 0.01211,0 0.0091,-0.002 0.01212,0 0.0091,0 0.0091,-0.002 0.0091,0 0.0091,-0.002 0.0091,0 0.0091,-0.002 0.0061,-0.002 0.0061,-0.002 0.0091,0 0.0061,-0.002 0.01212,-0.004 0.0091,-0.006 0.01212,-0.004 0.0061,-0.006 0.0091,-0.009 0.0061,-0.006 0.0061,-0.009 0.0031,-0.01 0.0061,-0.009 0.0031,-0.0125 0.0031,-0.0125 0,-0.006 0,-0.006 0.0031,-0.006 0,-0.006 0,-0.009 0,-0.009 0,-0.009 0,-0.009 0.0031,-0.009 0,-0.009 0,-0.009 0,-0.01 0,-0.009 0,-0.011 c 0,-1.0582 -0.725413,-3.38667 -4.416238,-4.79624 l -0.239784,0 c -0.379393,0 -0.394574,0.01 -0.394574,0.24947 0,0.19752 0.01517,0.20791 0.121399,0.2599 1.981997,0.84822 3.053431,2.27649 3.11414,4.38043 0,0.12266 0.106224,0.12266 0.421883,0.12266 l 0.968234,0 z" />
    <polyline
       transform="matrix(0,0.55470672,0.30352125,0,-41.545183,-100.95232)"
       style="font-style:normal;font-variant:normal;font-weight:normal;font-stretch:normal;letter-spacing:normal;word-spacing:normal;text-anchor:start;fill:#000000;fill-opacity:1;fill-rule:nonzero;stroke:#000000;stroke-width:0;stroke-linecap:butt;stroke-linejoin:miter;stroke-miterlimit:4;stroke-opacity:1;stroke-dasharray:none;stroke-dashoffset:0;font-family:Times New Roman;-inkscape-font-specification:'Times New Roman,'"
       id="polyline5407"
       points="555,381 586.92,381 586.92,387 555,387 " />
    <path
       style="font-style:normal;font-variant:normal;font-weight:normal;font-stretch:normal;letter-spacing:normal;word-spacing:normal;text-anchor:start;fill:#000000;fill-opacity:1;fill-rule:evenodd;stroke:#000000;stroke-width:0;stroke-linecap:butt;stroke-linejoin:miter;stroke-miterlimit:4;stroke-opacity:1;stroke-dasharray:none;stroke-dashoffset:0;font-family:Times New Roman;-inkscape-font-specification:'Times New Roman,'"
       id="path5409"
       d="m 78.752448,229.366 0.01821,0 0.0182,0 0.01519,0 0.01517,0 0.01516,0 0.01519,0 0.01517,0 0.01516,0 0.01212,0 0.01211,0 0.01212,-0.002 0.01212,0 0.01212,0 0.01212,-0.002 0.01212,0 0.0091,0 0.0091,-0.002 0.0091,0 0.01211,-0.002 0.0061,0 0.0091,-0.002 0.0091,-0.002 0.01519,-0.002 0.01212,-0.004 0.01516,-0.004 0.0091,-0.006 0.01212,-0.006 0.0091,-0.006 0.006,-0.006 0.0091,-0.009 0.0061,-0.009 0.0031,-0.01 0.0061,-0.01 0.0031,-0.01 0.0031,-0.0125 0,-0.009 0.0031,-0.006 0,-0.006 0,-0.009 0.0031,-0.009 0,-0.006 0,-0.009 0,-0.009 0,-0.01 0,-0.009 0.0031,-0.011 0,-0.009 0,-0.01 0,-0.01 0,-0.01 0,-0.0125 c 0,-0.19541 -0.01517,-0.20581 -0.12141,-0.25779 -1.981997,-0.84822 -3.053418,-2.27858 -3.114127,-4.38046 0,-0.12474 -0.106236,-0.12474 -0.424934,-0.12474 l -0.968234,0 c -0.406716,0 -0.421883,0 -0.421883,0.2183 0,1.05612 0.725414,3.38669 4.416223,4.79418 l 0.239786,0 z" />
    <polyline
       points="555,381 586.92,381 586.92,387 555,387 "
       id="polyline5411"
       style="font-style:normal;font-variant:normal;font-weight:normal;font-stretch:normal;letter-spacing:normal;word-spacing:normal;text-anchor:start;fill:#000000;fill-opacity:1;fill-rule:nonzero;stroke:#000000;stroke-width:0;stroke-linecap:butt;stroke-linejoin:miter;stroke-miterlimit:4;stroke-opacity:1;stroke-dasharray:none;stroke-dashoffset:0;font-family:Times New Roman;-inkscape-font-specification:'Times New Roman,'"
       transform="matrix(0,0.55470672,0.30352125,0,-41.545183,-127.77205)" />
    <text
       xml:space="preserve"
       style="font-size:12px;font-style:normal;font-variant:normal;font-weight:normal;font-stretch:normal;fill:#000000;fill-opacity:1;stroke:none;font-family:Courier New;-inkscape-font-specification:Courier New"
       x="-52.022858"
       y="204.84419"
       id="text5075"><tspan
         sodipodi:role="line"
         id="tspan5077"
         x="-52.022858"
         y="204.84419">sizeof(GtExample)</tspan></text>
  </g>
</svg>
